<svg width="42" height="28" viewBox="0 0 42 28" fill="none" xmlns="http://www.w3.org/2000/svg">
<path d="M41.7463 12.9354C37.792 5.2201 29.9637 0 21 0C12.0363 0 4.2058 5.22375 0.253711 12.9361C0.0869075 13.2661 0 13.6306 0 14.0004C0 14.3701 0.0869075 14.7346 0.253711 15.0646C4.20799 22.7799 12.0363 28 21 28C29.9637 28 37.7942 22.7762 41.7463 15.0639C41.9131 14.7339 42 14.3694 42 13.9996C42 13.6299 41.9131 13.2654 41.7463 12.9354ZM21 24.5C18.9233 24.5 16.8932 23.8842 15.1665 22.7304C13.4398 21.5767 12.094 19.9368 11.2992 18.0182C10.5045 16.0996 10.2966 13.9884 10.7017 11.9516C11.1069 9.91475 12.1069 8.04383 13.5754 6.57538C15.0438 5.10693 16.9147 4.1069 18.9515 3.70175C20.9884 3.29661 23.0996 3.50454 25.0182 4.29926C26.9368 5.09399 28.5767 6.4398 29.7304 8.16651C30.8842 9.89323 31.5 11.9233 31.5 14C31.5007 15.3791 31.2296 16.7447 30.7021 18.019C30.1747 19.2932 29.4013 20.451 28.4261 21.4261C27.451 22.4013 26.2932 23.1747 25.019 23.7021C23.7448 24.2295 22.3791 24.5007 21 24.5ZM21 7C20.3752 7.00873 19.7544 7.10169 19.1545 7.27635C19.649 7.94841 19.8863 8.77544 19.8234 9.60746C19.7604 10.4395 19.4014 11.2214 18.8114 11.8114C18.2214 12.4014 17.4395 12.7604 16.6075 12.8234C15.7754 12.8863 14.9484 12.649 14.2763 12.1545C13.8936 13.5644 13.9627 15.0588 14.4739 16.4274C14.985 17.796 15.9124 18.9698 17.1256 19.7837C18.3389 20.5976 19.7768 21.0105 21.237 20.9644C22.6972 20.9183 24.1061 20.4154 25.2655 19.5266C26.425 18.6377 27.2765 17.4077 27.7002 16.0096C28.1239 14.6115 28.0985 13.1157 27.6276 11.7327C27.1567 10.3498 26.264 9.14932 25.0751 8.30033C23.8861 7.45134 22.4609 6.99656 21 7Z" fill="#F5EAE6"/>
</svg>
